<svg width="17" height="9" viewBox="0 0 17 9" fill="none" xmlns="http://www.w3.org/2000/svg">
<path d="M8.49997 8.16235C8.03456 8.16318 7.57355 8.07228 7.14329 7.89483C6.71304 7.71738 6.32198 7.45687 5.99247 7.12819L0.205385 1.3411C0.0720034 1.20772 -0.00292969 1.02682 -0.00292969 0.838185C-0.00292969 0.649554 0.0720034 0.46865 0.205385 0.335268C0.338767 0.201886 0.519672 0.126953 0.708302 0.126953C0.896932 0.126953 1.07784 0.201886 1.21122 0.335268L6.9983 6.12235C7.39674 6.5203 7.93684 6.74382 8.49997 6.74382C9.0631 6.74382 9.6032 6.5203 10.0016 6.12235L15.7887 0.335268C15.9221 0.201886 16.103 0.126953 16.2916 0.126953C16.4803 0.126953 16.6612 0.201886 16.7946 0.335268C16.9279 0.46865 17.0029 0.649554 17.0029 0.838185C17.0029 1.02682 16.9279 1.20772 16.7946 1.3411L11.0075 7.12819C10.678 7.45687 10.2869 7.71738 9.85664 7.89483C9.42639 8.07228 8.96538 8.16318 8.49997 8.16235Z" fill="#404B63"/>
</svg>
